<?xml version="1.0" encoding="UTF-8" standalone="no"?><!DOCTYPE svg PUBLIC "-//W3C//DTD SVG 1.1//EN" "http://www.w3.org/Graphics/SVG/1.1/DTD/svg11.dtd"><svg width="100%" height="100%" viewBox="0 0 853 983" version="1.1" xmlns="http://www.w3.org/2000/svg" xmlns:xlink="http://www.w3.org/1999/xlink" xml:space="preserve" xmlns:serif="http://www.serif.com/" style="fill-rule:evenodd;clip-rule:evenodd;stroke-linejoin:round;stroke-miterlimit:2;"><path d="M140.132,354.113l-58.21,33.607l-81.922,-47.297l0,-94.595l81.922,-47.298l81.921,47.298l0,66.163l112.599,65.009c29.751,-38.861 74.313,-65.796 125.221,-72.34l-0,-129.423l-57.755,-33.345l0,-94.595l81.922,-47.297l81.922,47.297l-0,94.595l-57.755,33.345l0,129.423c50.908,6.544 95.47,33.479 125.221,72.34l112.218,-64.79l0,-66.382l81.922,-47.298l81.921,47.298l0,94.595l-81.921,47.297l-58.02,-33.498l-111.906,64.609c9.298,22.268 14.434,46.701 14.434,72.324c0,25.622 -5.136,50.055 -14.434,72.323l112.362,64.873l58.967,-34.045l81.921,47.298l0,94.594l-81.921,47.298l-81.922,-47.298l0,-65.289l-113.621,-65.599c-29.751,38.861 -74.313,65.796 -125.221,72.339l0,130.069l57.755,33.344l-0,94.595l-81.922,47.297l-81.922,-47.297l0,-94.595l57.755,-33.344l-0,-130.069c-50.908,-6.543 -95.47,-33.478 -125.221,-72.339l-112.599,65.009l0,65.879l-81.921,47.298l-81.922,-47.298l0,-94.594l81.922,-47.298l58.455,33.749l111.851,-64.577c-9.298,-22.268 -14.434,-46.701 -14.434,-72.323c-0,-25.623 5.136,-50.056 14.434,-72.324l-112.096,-64.718Zm-58.21,-103.642l-36.94,21.327l-0,42.654l36.94,21.328l36.939,-21.328l0,-42.654l-36.939,-21.327Zm236.267,330.736c20.845,24.884 50.151,42.445 83.474,48.237l-0,-53.45l-37.222,-21.49l-46.252,26.703Zm83.474,-228.342c-33.323,5.793 -62.629,23.353 -83.474,48.237l46.252,26.704l37.222,-21.491l-0,-53.45Zm131.808,48.237c-20.845,-24.884 -50.151,-42.444 -83.474,-48.237l0,53.45l37.222,21.491l46.252,-26.704Zm24.21,138.271c5.508,-15.039 8.515,-31.28 8.515,-48.218c-0,-16.938 -3.007,-33.179 -8.515,-48.219l-46.294,26.728l-0,42.981l46.294,26.728Zm-107.684,90.071c33.323,-5.792 62.629,-23.353 83.474,-48.237l-46.252,-26.703l-37.222,21.49l0,53.45Zm-156.018,-186.508c-5.508,15.04 -8.515,31.281 -8.515,48.219c0,16.938 3.007,33.179 8.515,48.218l46.294,-26.728l0,-42.981l-46.294,-26.728Zm131.851,3.672l-38.579,22.273l0,44.547l38.579,22.274l38.579,-22.274l-0,-44.547l-38.579,-22.273Zm344.931,199.639l-36.94,21.327l0,42.654l36.94,21.327l36.94,-21.327l-0,-42.654l-36.94,-21.327Zm-344.931,199.458l-36.94,21.327l0,42.655l36.94,21.327l36.94,-21.327l-0,-42.655l-36.94,-21.327Zm-343.908,-199.458l-36.94,21.327l-0,42.654l36.94,21.327l36.939,-21.327l0,-42.654l-36.939,-21.327Zm687.436,-395.776l-36.94,21.327l0,42.654l36.94,21.328l36.94,-21.328l-0,-42.654l-36.94,-21.327Zm-343.528,-198.53l-36.94,21.327l0,42.654l36.94,21.327l36.94,-21.327l-0,-42.654l-36.94,-21.327Z" style="fill:#00d7ff;"/></svg>